<svg width="13" height="9" viewBox="0 0 13 9" fill="none" xmlns="http://www.w3.org/2000/svg">
<path id="Arrow 44" d="M12 3.89565C12.3338 3.89565 12.6043 4.16623 12.6043 4.5C12.6043 4.83377 12.3338 5.10435 12 5.10435V3.89565ZM0.572662 4.92734C0.33665 4.69133 0.33665 4.30867 0.572662 4.07266L4.4187 0.22662C4.65472 -0.00939274 5.03737 -0.00939274 5.27338 0.22662C5.50939 0.462632 5.50939 0.845284 5.27338 1.0813L1.85468 4.5L5.27338 7.9187C5.50939 8.15472 5.50939 8.53737 5.27338 8.77338C5.03737 9.00939 4.65472 9.00939 4.4187 8.77338L0.572662 4.92734ZM12 5.10435H1V3.89565H12V5.10435Z" fill="white"/>
</svg>
