<svg width="25" height="24" viewBox="0 0 25 24" fill="none" xmlns="http://www.w3.org/2000/svg">
<g id="arroba 1" clip-path="url(#clip0_273_2792)">
<path id="Vector" d="M23.9949 10.3505C23.5757 7.29506 21.9599 4.53134 19.503 2.66728C17.0461 0.803213 13.9493 -0.0084995 10.8939 0.410708C7.83852 0.829916 5.0748 2.4457 3.21073 4.90262C1.34667 7.35953 0.534958 10.4563 0.954165 13.5117C1.29954 16.0406 2.46166 18.3874 4.26366 20.1949C6.06566 22.0025 8.40887 23.1718 10.9367 23.525C11.4539 23.5927 11.975 23.6268 12.4967 23.627C14.6043 23.6304 16.6724 23.0553 18.4757 21.9642C18.6022 21.888 18.7125 21.7876 18.8003 21.6687C18.888 21.5498 18.9515 21.4149 18.9871 21.2715C19.0227 21.1281 19.0297 20.9791 19.0077 20.833C18.9857 20.6869 18.9351 20.5465 18.8589 20.42C18.7827 20.2934 18.6823 20.1831 18.5634 20.0953C18.4445 20.0076 18.3096 19.9441 18.1662 19.9085C17.8766 19.8366 17.5703 19.8828 17.3147 20.0367C16.0312 20.8071 14.5818 21.259 13.0879 21.3544C11.594 21.4499 10.0989 21.1863 8.72775 20.5855C7.35661 19.9848 6.14925 19.0645 5.20668 17.9015C4.26411 16.7385 3.61374 15.3668 3.30997 13.9009C3.0062 12.4351 3.05786 10.9178 3.46064 9.47608C3.86341 8.03431 4.60559 6.70996 5.62508 5.6138C6.64457 4.51765 7.91174 3.68156 9.32057 3.17549C10.7294 2.66942 12.2389 2.50808 13.7229 2.70496C15.1013 2.88823 16.4216 3.37581 17.5883 4.13238C18.7549 4.88896 19.7387 5.89558 20.4682 7.07931C21.1978 8.26304 21.6549 9.59423 21.8064 10.9764C21.958 12.3587 21.8002 13.7573 21.3444 15.071C21.2262 15.3869 21.0125 15.6581 20.7331 15.8471C20.4537 16.036 20.1224 16.1333 19.7852 16.1255C19.3408 16.1249 18.9148 15.9481 18.6005 15.6338C18.2863 15.3196 18.1095 14.8936 18.1089 14.4492V7.50046C18.1089 7.20209 17.9904 6.91594 17.7794 6.70496C17.5684 6.49398 17.2823 6.37546 16.9839 6.37546C16.6855 6.37546 16.3994 6.49398 16.1884 6.70496C15.9774 6.91594 15.8589 7.20209 15.8589 7.50046V7.51096C15.0061 6.86726 13.9875 6.4798 12.9225 6.39391C11.8574 6.30801 10.7899 6.52725 9.84493 7.02595C8.89994 7.52466 8.11654 8.2822 7.58642 9.20992C7.05629 10.1376 6.80136 11.1972 6.85147 12.2645C6.90158 13.3318 7.25466 14.3628 7.86938 15.2368C8.48409 16.1108 9.33502 16.7916 10.3226 17.1995C11.3101 17.6075 12.3935 17.7258 13.4458 17.5405C14.4981 17.3552 15.4759 16.874 16.2647 16.1532C16.5834 16.817 17.0827 17.3776 17.7053 17.7706C18.328 18.1637 19.0488 18.3733 19.7852 18.3755C20.5901 18.3832 21.3775 18.1401 22.0379 17.6799C22.6984 17.2197 23.1992 16.5653 23.4707 15.8075C24.077 14.056 24.2567 12.1853 23.9949 10.3505ZM12.4839 15.3755C11.8164 15.3755 11.1639 15.1775 10.6089 14.8067C10.0539 14.4358 9.62127 13.9087 9.36582 13.292C9.11038 12.6753 9.04354 11.9967 9.17376 11.342C9.30399 10.6873 9.62543 10.086 10.0974 9.61397C10.5694 9.14197 11.1708 8.82053 11.8255 8.69031C12.4802 8.56008 13.1588 8.62692 13.7755 8.88236C14.3922 9.13781 14.9193 9.57039 15.2901 10.1254C15.661 10.6804 15.8589 11.3329 15.8589 12.0005C15.8579 12.8953 15.502 13.7531 14.8693 14.3858C14.2366 15.0186 13.3787 15.3745 12.4839 15.3755Z" fill="#866B7E"/>
</g>
<defs>
<clipPath id="clip0_273_2792">
<rect width="24" height="24" fill="white" transform="translate(0.483887)"/>
</clipPath>
</defs>
</svg>
