<svg width="20" height="19" viewBox="0 0 20 19" fill="none" xmlns="http://www.w3.org/2000/svg">
<g id="calendar 1" clip-path="url(#clip0_273_2817)">
<g id="Group">
<g id="Group_2">
<path id="Vector" d="M17.5382 1.86712H16.6081V0.93698C16.6081 0.378894 16.236 0.00683594 15.678 0.00683594C15.1199 0.00683594 14.7478 0.378894 14.7478 0.93698V1.86712H5.44638V0.93698C5.44638 0.378894 5.07432 0.00683594 4.51623 0.00683594C3.95814 0.00683594 3.58609 0.378894 3.58609 0.93698V1.86712H1.7258C1.26073 1.86712 0.795654 2.23918 0.795654 2.79727V15.8193C0.795654 16.3774 1.26073 16.7494 1.7258 16.7494H7.39968C6.74858 15.6333 6.37652 14.3311 6.37652 13.0289C6.37652 8.93622 9.72504 5.5877 13.8177 5.5877C15.5849 5.5877 17.1662 6.2388 18.4684 7.26196V2.79727C18.4684 2.3322 18.0033 1.86712 17.5382 1.86712Z" fill="#866B7E"/>
</g>
</g>
<g id="Group_3">
<g id="Group_4">
<path id="Vector_2" d="M13.8177 7.44824C10.7482 7.44824 8.23682 9.95963 8.23682 13.0291C8.23682 16.0986 10.7482 18.61 13.8177 18.61C16.8872 18.61 19.3985 16.0986 19.3985 13.0291C19.3985 9.95963 16.8872 7.44824 13.8177 7.44824ZM15.678 13.9593H13.8177C13.2596 13.9593 12.8875 13.5872 12.8875 13.0291V10.2387C12.8875 9.68059 13.2596 9.30853 13.8177 9.30853C14.3758 9.30853 14.7478 9.68059 14.7478 10.2387V12.099H15.678C16.2361 12.099 16.6081 12.471 16.6081 13.0291C16.6081 13.5872 16.2361 13.9593 15.678 13.9593Z" fill="#866B7E"/>
</g>
</g>
</g>
<defs>
<clipPath id="clip0_273_2817">
<rect width="18.6029" height="18.6029" fill="white" transform="translate(0.795654 0.00683594)"/>
</clipPath>
</defs>
</svg>
