<svg width="23" height="22" viewBox="0 0 23 22" fill="none" xmlns="http://www.w3.org/2000/svg">
<g clip-path="url(#clip0_273_2789)">
<path d="M19.2582 3.2227C14.9616 -1.07391 8.00734 -1.07456 3.71012 3.2227C0.255008 6.67777 -0.397889 11.8152 1.64478 15.9065L0.512331 20.8878C0.365136 21.5353 0.945402 22.1158 1.5931 21.9686L6.57439 20.8361C13.8171 24.4522 22.4784 19.217 22.4784 10.9968C22.4784 8.06019 21.3348 5.2993 19.2582 3.2227ZM13.7776 13.7345H6.89729C6.39855 13.7345 5.99425 13.3302 5.99425 12.8315C5.99425 12.3328 6.39855 11.9285 6.89729 11.9285H13.7776C14.2763 11.9285 14.6806 12.3328 14.6806 12.8315C14.6806 13.3302 14.2763 13.7345 13.7776 13.7345ZM16.071 10.0651H6.89729C6.39855 10.0651 5.99425 9.66077 5.99425 9.16203C5.99425 8.6633 6.39855 8.25899 6.89729 8.25899H16.071C16.5698 8.25899 16.9741 8.6633 16.9741 9.16203C16.9741 9.66077 16.5697 10.0651 16.071 10.0651Z" fill="#866B7E"/>
</g>
<defs>
<clipPath id="clip0_273_2789">
<rect width="22" height="22" fill="white" transform="translate(0.483887)"/>
</clipPath>
</defs>
</svg>
