<svg width="45" height="45" viewBox="0 0 45 45" fill="none" xmlns="http://www.w3.org/2000/svg">
<rect x="0.5" y="0.535645" width="44" height="44" rx="22" fill="#3F3E43"/>
<rect x="1" y="1.03564" width="43" height="43" rx="21.5" stroke="#F3E8EC" stroke-opacity="0.99"/>
<path d="M22.5 19.2856C21.638 19.2856 20.8114 19.6281 20.2019 20.2375C19.5924 20.847 19.25 21.6737 19.25 22.5356C19.25 23.3976 19.5924 24.2242 20.2019 24.8337C20.8114 25.4432 21.638 25.7856 22.5 25.7856C23.362 25.7856 24.1886 25.4432 24.7981 24.8337C25.4076 24.2242 25.75 23.3976 25.75 22.5356C25.75 21.6737 25.4076 20.847 24.7981 20.2375C24.1886 19.6281 23.362 19.2856 22.5 19.2856Z" fill="#F3E8EC" fill-opacity="0.99"/>
<path fill-rule="evenodd" clip-rule="evenodd" d="M17.27 13.6177C20.746 13.2326 24.254 13.2326 27.73 13.6177C29.629 13.8297 31.16 15.3247 31.383 17.2307C31.7949 20.7553 31.7949 24.316 31.383 27.8407C31.16 29.7467 29.629 31.2417 27.731 31.4547C24.2546 31.8398 20.7464 31.8398 17.27 31.4547C15.371 31.2417 13.84 29.7467 13.617 27.8417C13.205 24.3167 13.205 20.7557 13.617 17.2307C13.84 15.3247 15.371 13.8297 17.27 13.6177ZM27.5 16.5357C27.2348 16.5357 26.9804 16.641 26.7929 16.8286C26.6054 17.0161 26.5 17.2704 26.5 17.5357C26.5 17.8009 26.6054 18.0552 26.7929 18.2428C26.9804 18.4303 27.2348 18.5357 27.5 18.5357C27.7652 18.5357 28.0196 18.4303 28.2071 18.2428C28.3946 18.0552 28.5 17.8009 28.5 17.5357C28.5 17.2704 28.3946 17.0161 28.2071 16.8286C28.0196 16.641 27.7652 16.5357 27.5 16.5357ZM17.75 22.5357C17.75 21.2759 18.2504 20.0677 19.1412 19.1769C20.032 18.2861 21.2402 17.7857 22.5 17.7857C23.7598 17.7857 24.968 18.2861 25.8588 19.1769C26.7496 20.0677 27.25 21.2759 27.25 22.5357C27.25 23.7954 26.7496 25.0036 25.8588 25.8944C24.968 26.7852 23.7598 27.2857 22.5 27.2857C21.2402 27.2857 20.032 26.7852 19.1412 25.8944C18.2504 25.0036 17.75 23.7954 17.75 22.5357Z" fill="#F3E8EC" fill-opacity="0.99"/>
</svg>
