<svg width="45" height="45" viewBox="0 0 45 45" fill="none" xmlns="http://www.w3.org/2000/svg">
<rect x="0.5" y="0.535645" width="44" height="44" rx="22" fill="#3F3E43"/>
<rect x="1" y="1.03564" width="43" height="43" rx="21.5" stroke="#F3E8EC" stroke-opacity="0.99"/>
<path d="M29.23 15.9457L27.95 16.9457L22.5 20.9957L17.05 16.9057L15.77 15.9057C15.4685 15.6563 15.1004 15.5008 14.7113 15.4585C14.3222 15.4162 13.9293 15.489 13.5812 15.6678C13.2331 15.8467 12.9451 16.1237 12.753 16.4646C12.5608 16.8055 12.4728 17.1953 12.5 17.5857V29.1757C12.5 29.5364 12.6433 29.8824 12.8983 30.1374C13.1534 30.3925 13.4993 30.5357 13.86 30.5357H17.05V22.8157L22.5 26.9057L27.95 22.8157V30.5357H31.14C31.5007 30.5357 31.8466 30.3925 32.1017 30.1374C32.3567 29.8824 32.5 29.5364 32.5 29.1757V17.5857C32.5188 17.1987 32.4247 16.8145 32.2293 16.48C32.0338 16.1454 31.7453 15.8748 31.399 15.7011C31.0526 15.5274 30.6632 15.458 30.2782 15.5014C29.8931 15.5449 29.529 15.6992 29.23 15.9457Z" fill="#F3E8EC" fill-opacity="0.99"/>
</svg>
