<svg width="244" height="166" viewBox="0 0 244 166" fill="none" xmlns="http://www.w3.org/2000/svg">
<g id="Group 13">
<path id="Vector" d="M30.5463 122.383L23.9794 124.922C21.1467 126.018 18.9067 128.257 17.8119 131.09L15.2732 137.656L12.7335 131.09C11.6377 128.257 9.39866 126.017 6.56603 124.922L0 122.383L6.56603 119.844C9.39866 118.748 11.6387 116.509 12.7335 113.676L15.2732 107.109L17.8119 113.676C18.9076 116.509 21.1467 118.749 23.9794 119.844L30.5463 122.383Z" fill="white"/>
<path id="Vector_2" d="M25 9.00001L21.1303 10.4965C19.4611 11.1422 18.1411 12.4617 17.496 14.1308L16 18L14.5035 14.1308C13.8578 12.4617 12.5383 11.1417 10.8692 10.4965L7 9.00001L10.8692 7.50402C12.5383 6.85832 13.8583 5.5389 14.5035 3.86972L16 0L17.496 3.86972C18.1417 5.5389 19.4611 6.85888 21.1303 7.50402L25 9.00001Z" fill="white"/>
<path id="Vector_3" d="M179 45.7263L172.433 48.266C169.6 49.3617 167.36 51.6008 166.265 54.4334L163.727 60.9995L161.187 54.4334C160.091 51.6008 157.852 49.3608 155.02 48.266L148.454 45.7263L155.02 43.1876C157.852 42.0918 160.092 39.8527 161.187 37.0201L163.727 30.4531L166.265 37.0201C167.361 39.8527 169.6 42.0928 172.433 43.1876L179 45.7263Z" fill="white"/>
<path id="Vector_4" d="M244 139.953L233.036 144.193C228.306 146.023 224.567 149.761 222.739 154.491L218.5 165.453L214.26 154.491C212.43 149.761 208.692 146.021 203.963 144.193L193 139.953L203.963 135.715C208.692 133.885 212.432 130.147 214.26 125.417L218.5 114.453L222.739 125.417C224.568 130.147 228.306 133.887 233.036 135.715L244 139.953Z" fill="white"/>
</g>
</svg>
