<svg width="25" height="24" viewBox="0 0 25 24" fill="none" xmlns="http://www.w3.org/2000/svg">
<path d="M22.5286 17.52C21.8731 16.9703 18.0286 14.5358 17.3896 14.6475C17.0896 14.7008 16.8601 14.9565 16.2459 15.6893C15.9618 16.0499 15.6499 16.3877 15.3129 16.6995C14.6955 16.5504 14.0978 16.3288 13.5324 16.0395C11.3148 14.9599 9.52336 13.1679 8.44439 10.95C8.15507 10.3846 7.93353 9.78691 7.78439 9.1695C8.09618 8.83252 8.43397 8.52056 8.79464 8.2365C9.52664 7.62225 9.78314 7.39425 9.83639 7.09275C9.94814 6.45225 7.51139 2.60925 6.96389 1.95375C6.73439 1.68225 6.52589 1.5 6.25889 1.5C5.48489 1.5 1.98389 5.829 1.98389 6.39C1.98389 6.43575 2.05889 10.9425 7.75064 16.7333C13.5414 22.425 18.0481 22.5 18.0939 22.5C18.6549 22.5 22.9839 18.999 22.9839 18.225C22.9839 17.958 22.8016 17.7495 22.5286 17.52Z" fill="#866B7E"/>
<path d="M17.7339 11.25H19.2339C19.2321 9.65925 18.5994 8.13416 17.4746 7.00933C16.3497 5.8845 14.8246 5.25179 13.2339 5.25V6.75C14.427 6.75119 15.5709 7.22568 16.4146 8.06933C17.2582 8.91299 17.7327 10.0569 17.7339 11.25Z" fill="#866B7E"/>
<path d="M21.4839 11.25H22.9839C22.9809 8.66505 21.9527 6.18683 20.1249 4.359C18.2971 2.53116 15.8188 1.50298 13.2339 1.5V3C15.4211 3.00258 17.5181 3.8726 19.0647 5.41922C20.6113 6.96584 21.4813 9.06276 21.4839 11.25Z" fill="#866B7E"/>
</svg>
