<svg width="34" height="34" viewBox="0 0 34 34" fill="none" xmlns="http://www.w3.org/2000/svg">
<path d="M29.2035 14.3357C28.7629 14.0796 28.367 13.7533 28.0314 13.3698C28.0653 12.8358 28.1925 12.3119 28.4072 11.8218C28.802 10.708 29.2483 9.4463 28.532 8.46543C27.8157 7.48456 26.4631 7.51577 25.276 7.5429C24.7515 7.59687 24.2216 7.56108 23.709 7.43708C23.436 6.99278 23.241 6.50503 23.1325 5.99494C22.796 4.84856 22.4121 3.55294 21.2331 3.16494C20.0962 2.79864 19.0435 3.60449 18.1128 4.31267C17.7112 4.67941 17.2459 4.96954 16.7398 5.16873C16.2285 4.97116 15.758 4.68095 15.352 4.31267C14.424 3.60856 13.3753 2.79457 12.233 3.16629C11.0568 3.54887 10.6728 4.84856 10.3337 5.99494C10.2253 6.50337 10.0322 6.98996 9.76251 7.43437C9.24904 7.55804 8.71846 7.59472 8.19285 7.5429C7.00169 7.51034 5.65995 7.47506 4.93685 8.46543C4.21374 9.4558 4.66551 10.708 5.06166 11.8205C5.27933 12.3098 5.4084 12.8339 5.44288 13.3684C5.1079 13.7525 4.71242 14.0792 4.27208 14.3357C3.279 15.0141 2.15161 15.786 2.15161 17.0396C2.15161 18.2931 3.279 19.0624 4.27208 19.7434C4.71232 19.9995 5.10779 20.3258 5.44288 20.7093C5.41203 21.2436 5.28663 21.7682 5.07251 22.2587C4.67908 23.3711 4.23409 24.6328 4.94906 25.6137C5.66402 26.5946 7.01255 26.5634 8.20506 26.5362C8.73004 26.4822 9.2604 26.518 9.77337 26.6421C10.0452 27.0868 10.2397 27.5744 10.3486 28.0842C10.685 29.2306 11.069 30.5262 12.2479 30.9142C12.4369 30.9748 12.6342 31.0059 12.8326 31.0065C13.7867 30.8695 14.6734 30.4357 15.3669 29.7665C15.7685 29.3997 16.2338 29.1096 16.7398 28.9104C17.2512 29.108 17.7217 29.3982 18.1277 29.7665C19.057 30.476 20.1098 31.2859 21.2481 30.9128C22.4243 30.5303 22.8082 29.2306 23.1474 28.0855C23.2561 27.5762 23.4506 27.089 23.7226 26.6448C24.2341 26.5202 24.7631 26.4835 25.2868 26.5362C26.478 26.5647 27.8197 26.6041 28.5429 25.6137C29.266 24.6233 28.8142 23.3711 28.418 22.2573C28.2019 21.7684 28.0728 21.2454 28.0368 20.7121C28.372 20.3277 28.768 20.0009 29.209 19.7448C30.2021 19.0664 31.3294 18.2931 31.3294 17.0396C31.3294 15.786 30.198 15.0154 29.2035 14.3357Z" fill="#49ADF4"/>
<path d="M15.3834 20.7705C15.2498 20.7708 15.1174 20.7445 14.994 20.6933C14.8706 20.6421 14.7586 20.5669 14.6644 20.4721L11.9511 17.7587C11.7713 17.5658 11.6735 17.3107 11.6781 17.0471C11.6828 16.7835 11.7896 16.532 11.976 16.3456C12.1624 16.1592 12.4139 16.0524 12.6775 16.0477C12.9411 16.0431 13.1962 16.1409 13.3891 16.3207L15.4784 18.4099L20.1996 14.869C20.4155 14.7071 20.6868 14.6376 20.954 14.6758C21.2211 14.7139 21.4622 14.8566 21.6241 15.0725C21.786 15.2884 21.8555 15.5598 21.8174 15.8269C21.7792 16.0941 21.6365 16.3351 21.4206 16.497L15.9939 20.567C15.8178 20.699 15.6036 20.7704 15.3834 20.7705Z" fill="white"/>
</svg>
